<?xml version="1.0" encoding="utf-8"?>
<!-- Generator: Adobe Illustrator 27.2.0, SVG Export Plug-In . SVG Version: 6.00 Build 0)  -->
<svg version="1.1" id="Layer_1" xmlns="http://www.w3.org/2000/svg" xmlns:xlink="http://www.w3.org/1999/xlink" x="0px" y="0px"
	 viewBox="0 0 512 521" style="enable-background:new 0 0 512 521;" xml:space="preserve">
<path d="M322.2,206.7l-4-2.7c-2-1.3-2.5-4-1.2-6l17.1-25.2c1.3-2,4-2.5,6-1.2l4,2.7c2,1.3,2.5,4,1.2,6l-17.1,25.2
	C326.9,207.5,324.2,208.1,322.2,206.7z"/>
<path d="M325.1,207.2L325.1,207.2c-1-3.1-0.4-6.1,1.4-6.8l16.8-6.4c1.8-0.7,4.1,1.2,5.1,4.3l0,0c1,3.1,0.4,6.1-1.4,6.8l-16.8,6.4
	C328.4,212.2,326.1,210.2,325.1,207.2z"/>
<path d="M314,208l-1.3-0.2c-2-0.3-3.4-2.1-3.1-4l3-23.6c0.3-2,2.1-3.4,4-3.1l1.3,0.2c2,0.3,3.4,2.1,3.1,4l-3,23.6
	C317.8,206.8,316,208.2,314,208z"/>
<path d="M201.1,235.2c-0.7,13.5,7.3,25.5,19.1,30.5l-1.2,21.9l0,0.1l-0.9,16.6c-0.2,3.8,2.7,7.1,6.5,7.3l115.5,6.2
	c3.8,0.2,7.1-2.7,7.3-6.5l0.9-16.6l0-0.1l1.6-30.4c2.2-40.5-25-74.9-60.7-76.8c-18.1-1-35,6.6-47.5,19.7c-2.5-0.8-5.1-1.3-7.7-1.4
	C216.7,204.7,202,217.9,201.1,235.2z M208,235.6c0.7-13.4,12.2-23.8,25.6-23c1,0.1,2.1,0.2,3.1,0.4c11.9,2.2,20.6,12.9,19.9,25.3
	c-0.7,13.4-12.2,23.8-25.6,23c-3.8-0.2-7.3-1.3-10.5-3C212.6,253.8,207.5,245.2,208,235.6z"/>
<circle cx="222.2" cy="239.3" r="11.3"/>
<path d="M268.3,350.8h-23.7c-6.1,0-11.1-5-11.1-11.1V316c0-6.1,5-11.1,11.1-11.1h23.7c6.1,0,11.1,5,11.1,11.1v23.7
	C279.5,345.8,274.5,350.8,268.3,350.8z"/>
<path d="M324.7,329.2h-23.7c-6.1,0-11.1-3.8-11.1-8.5v-5.9c0-4.7,5-8.5,11.1-8.5h23.7c6.1,0,11.1,3.8,11.1,8.5v5.9
	C335.8,325.4,330.9,329.2,324.7,329.2z"/>
</svg>
