<?xml version="1.0" encoding="utf-8"?>
<!-- Generator: Adobe Illustrator 27.2.0, SVG Export Plug-In . SVG Version: 6.00 Build 0)  -->
<svg version="1.1" id="Layer_1" xmlns="http://www.w3.org/2000/svg" xmlns:xlink="http://www.w3.org/1999/xlink" x="0px" y="0px"
	 viewBox="0 0 512 521" style="enable-background:new 0 0 512 521;" xml:space="preserve">
<path d="M304.7,198.5l-3.7-3c-1.9-1.5-2.1-4.2-0.6-6.1l19.1-23.7c1.5-1.9,4.2-2.1,6.1-0.6l3.7,3c1.9,1.5,2.1,4.2,0.6,6.1l-19.1,23.7
	C309.3,199.7,306.6,200,304.7,198.5z"/>
<path d="M309.4,203.1L309.4,203.1c-1.8-2.7-2-5.8-0.4-6.9l14.6-10.5c1.6-1.1,4.3,0.1,6.1,2.8l0,0c1.8,2.7,2,5.8,0.4,6.9l-14.6,10.5
	C314,207.1,311.2,205.8,309.4,203.1z"/>
<path d="M301.5,199.1l-1.3,0.1c-2,0.2-3.8-1.2-4-3.2l-2.6-23.7c-0.2-2,1.2-3.8,3.2-4l1.3-0.1c2-0.2,3.8,1.2,4,3.2l2.6,23.7
	C304.9,197.1,303.4,198.9,301.5,199.1z"/>
<path d="M193.4,247.9c1.5,13.5,11.3,24,23.8,27l2.4,21.8l0,0.1l1.8,16.5c0.4,3.8,3.8,6.5,7.6,6.1l115-12.7c3.8-0.4,6.5-3.8,6.1-7.6
	l-1.8-16.5l0-0.1l-3.3-30.2c-4.5-40.3-36.9-69.9-72.4-65.9c-18.1,2-33.4,12.3-43.6,27.1c-2.6-0.4-5.2-0.4-7.9-0.1
	C203.9,215.2,191.5,230.7,193.4,247.9z M200.3,247.1c-1.5-13.4,8.1-25.4,21.5-26.9c1-0.1,2.1-0.2,3.1-0.1
	c12.1,0.2,22.4,9.3,23.8,21.7c1.5,13.4-8.1,25.4-21.5,26.9c-3.8,0.4-7.5-0.1-10.8-1.3C207.8,264.4,201.4,256.7,200.3,247.1z"/>
<circle cx="215.9" cy="241.3" r="11.3"/>
<path d="M282.3,344.5v-33c0-8.6,5-15.5,11.1-15.5h23.7c6.1,0,11.1,6.9,11.1,15.5v33c0,8.6-5,15.5-11.1,15.5h-23.7
	C287.3,360,282.3,353.1,282.3,344.5z"/>
<path d="M225.8,325.4v-7.8c0-6.1,5-11.1,11.1-11.1h23.7c6.1,0,11.1,5,11.1,11.1v7.8c0,6.1-5,11.1-11.1,11.1h-23.7
	C230.8,336.5,225.8,331.6,225.8,325.4z"/>
</svg>
