<?xml version="1.0" encoding="utf-8"?>
<!-- Generator: Adobe Illustrator 27.2.0, SVG Export Plug-In . SVG Version: 6.00 Build 0)  -->
<svg version="1.1" id="Layer_1" xmlns="http://www.w3.org/2000/svg" xmlns:xlink="http://www.w3.org/1999/xlink" x="0px" y="0px"
	 viewBox="0 0 512 521" style="enable-background:new 0 0 512 521;" xml:space="preserve">
<path d="M316.4,202.9l-3.5-3.3c-1.7-1.6-1.8-4.4-0.2-6.1l20.9-22.2c1.6-1.7,4.4-1.8,6.1-0.2l3.5,3.3c1.7,1.6,1.8,4.4,0.2,6.1
	l-20.9,22.2C320.9,204.4,318.2,204.5,316.4,202.9z"/>
<path d="M319,200.2L319,200.2c0.4-3.2,2.3-5.7,4.2-5.5l17.9,1.5c1.9,0.2,3.2,2.9,2.8,6.1l0,0c-0.4,3.2-2.3,5.7-4.2,5.5l-17.9-1.5
	C319.9,206.2,318.6,203.4,319,200.2z"/>
<path d="M308.7,202.9l-1.3-0.3c-1.9-0.5-3.1-2.5-2.6-4.4l5.9-23.1c0.5-1.9,2.5-3.1,4.4-2.6l1.3,0.3c1.9,0.5,3.1,2.5,2.6,4.4
	l-5.9,23.1C312.6,202.2,310.6,203.4,308.7,202.9z"/>
<path d="M200,239.6c0,13.6,8.6,25.1,20.7,29.4l0,21.9l0,0.1l0,16.6c0,3.8,3.1,6.9,6.9,6.9l115.7-0.1c3.8,0,6.9-3.1,6.9-6.9l0-16.6
	l0-0.1l0-30.4c0-40.6-29.1-73.5-64.8-73.4c-18.2,0-34.6,8.5-46.3,22.2c-2.5-0.6-5.1-1-7.8-1C213.9,208.2,200,222.3,200,239.6z
	 M206.9,239.6c0-13.5,10.9-24.4,24.3-24.4c1,0,2.1,0.1,3.1,0.2c12,1.5,21.3,11.7,21.3,24.2c0,13.5-10.9,24.4-24.3,24.4
	c-3.8,0-7.4-0.9-10.6-2.4C212.5,257.6,206.9,249.2,206.9,239.6z"/>
<circle cx="222.2" cy="238.5" r="11.3"/>
<path d="M300.2,356h23.7c6.1,0,11.1-5.5,11.1-12.4v-26.4c0-6.8-5-12.4-11.1-12.4h-23.7c-6.1,0-11.1,5.5-11.1,12.4v26.4
	C289,350.5,294,356,300.2,356z"/>
<path d="M243.8,341.4h23.7c6.1,0,11.1-5.9,11.1-13.1v-9.2c0-7.2-5-13.1-11.1-13.1h-23.7c-6.1,0-11.1,5.9-11.1,13.1v9.2
	C232.7,335.6,237.6,341.4,243.8,341.4z"/>
</svg>
