<?xml version="1.0" encoding="utf-8"?>
<!-- Generator: Adobe Illustrator 27.2.0, SVG Export Plug-In . SVG Version: 6.00 Build 0)  -->
<svg version="1.1" id="Layer_1" xmlns="http://www.w3.org/2000/svg" xmlns:xlink="http://www.w3.org/1999/xlink" x="0px" y="0px"
	 viewBox="0 0 1000 232" style="enable-background:new 0 0 1000 232;" xml:space="preserve">
<g>
	<path style="fill:#734E9F;" d="M845.9294,231.761c-25.9957,0-51.9913,0-77.9869,0c-2.2837-1.3962-4.8329-1.026-7.3018-1.0301
		c-21.6207-0.0356-43.2414-0.0377-64.8621-0.0497c0.0822-10.2883-0.0146-20.5826,0.3358-30.8618
		c0.1381-4.0512-1.8913-4.1257-4.8577-4.0492c-2.9418,0.0759-5.4106-0.3112-5.2822,4.1861
		c0.2936,10.2841,0.0238,20.5842-0.0173,30.877c-14.4401-0.0394-28.8806-0.1708-43.3198-0.0841
		c-9.7831,0.0588-19.5781-0.5208-29.3503,0.3916l-0.2899-0.3456c0.8418-10.281,0.0507-20.5846,0.4348-30.8668
		c0.1362-3.6473-1.3678-4.4115-4.6841-4.395c-22.6326,0.1124-45.2664,0.1216-67.8989-0.008
		c-3.4907-0.02-4.5977,1.0992-4.5473,4.5486c0.1478,10.1335-0.0048,20.2713-0.0397,30.4074
		c-0.128,0.1297-0.2559,0.2596-0.3837,0.3895c-24.0891-0.0832-48.1782-0.1664-72.2673-0.2497
		c0.0724-10.2866-0.0569-20.5803,0.3075-30.8566c0.1674-4.7218-2.7359-3.7762-5.4677-3.9855
		c-3.164-0.2424-4.8415,0.3623-4.753,4.181c0.2385,10.2861,0.0732,20.5816,0.0681,30.8728
		c-24.1954,0.0379-48.3907,0.0763-72.5859,0.1148l-0.2903-0.2935c0.0154-10.1418-0.0743-20.2855,0.1067-30.4243
		c0.0581-3.256-0.5841-4.7372-4.313-4.7124c-22.8096,0.1522-45.621,0.1292-68.431,0.0163c-3.2289-0.016-4.3298,0.9256-4.2651,4.2239
		c0.2018,10.3043,0.1056,20.6145,0.1249,30.9224l-0.2766,0.2806c-24.2102-0.0435-48.4204-0.087-72.6306-0.1304
		c0.0415-10.268-0.1226-20.5429,0.2216-30.8008c0.1464-4.3627-2.1325-4.2678-5.2045-4.2661
		c-3.0724,0.0017-5.3001-0.0796-5.1776,4.2754c0.2888,10.259,0.026,20.5335-0.0138,30.8008
		c-23.9661,0.004-47.9321,0.009-71.898,0.0139c-0.1402-0.1383-0.2805-0.2765-0.4209-0.4146
		c-0.0539-10.2802-0.1397-20.5604-0.1384-30.8406c0.0003-2.4407-0.3052-4.0614-3.4451-4.049
		c-23.2515,0.0918-46.5035,0.0728-69.7552,0.0188c-2.4728-0.0057-3.6082,0.7114-3.5679,3.3803
		c0.1604,10.6081,0.1726,21.2185,0.2397,31.828l-0.2727,0.3154c-1.6527-0.1234-3.3053-0.3534-4.958-0.3542
		c-22.5811-0.0102-45.1621,0.0113-67.7432,0.0249c0-69.5555,0-139.1111,0-208.6666c77.6346,0.0008,155.2692,0.0014,232.9038,0.0042
		c1.8324,0.0001,3.6652,0.0557,5.4971,0.0316c3.1337-0.0412,4.545,1.5167,4.5319,4.5988
		c-0.0184,4.3248,0.0522,8.6499,0.0701,12.9749c0.0118,2.841,1.34,4.2601,4.2662,4.3111c3.0952,0.054,4.6905-1.2651,4.6834-4.4156
		c-0.0068-2.9942,0.0329-5.9885,0.0399-8.9828c0.0199-8.5066,0.0174-8.5175,8.6618-8.5179
		c75.469-0.003,150.9381-0.0019,226.4071-0.0006c1.3327,0,2.6669,0.0609,3.9979,0.0166c3.3729-0.1123,4.8508,1.5358,4.8124,4.8493
		c-0.0482,4.158,0.0505,8.3174,0.0394,12.4762c-0.0082,3.0629,1.3598,4.5873,4.535,4.5836c3.2238-0.0037,4.477-1.6385,4.4483-4.6592
		c-0.0269-2.8277,0.0184-5.6559,0.023-8.484c0.0142-8.773,0.0126-8.7819,8.8947-8.7822
		c75.1358-0.0024,150.2717-0.0014,225.4075-0.0009c0.9996,0,2.004,0.072,2.9979-0.0016c3.9976-0.2958,5.8582,1.4072,5.6963,5.5227
		c-0.1567,3.9855,0.0333,7.9835,0.0095,11.9757c-0.0212,3.5592,2.0307,4.4913,5.176,4.4562
		c3.029-0.0338,4.7358-1.1994,4.7285-4.3972c-0.0091-3.9923,0.1701-7.9902,0.0137-11.9757
		c-0.1595-4.0647,1.5808-5.6771,5.6337-5.6147c9.1606,0.1409,18.3251,0.0345,27.488,0.0344
		c67.1391-0.0006,134.2783,0.0122,201.4174-0.0283c4.1591-0.0025,7.3791,0.0015,7.3662,5.8445
		c-0.1448,65.712-0.1111,131.4245-0.0419,197.1367c0.0042,3.9655-1.2585,5.7374-5.4525,5.7058
		c-21.6559-0.1633-43.3131-0.1547-64.9698-0.206c0.0239-9.9767-0.1295-19.9585,0.1581-29.9276
		c0.1167-4.0449-1.363-4.8381-5.1233-4.955c-4.2548-0.1323-4.905,1.6062-4.8353,5.2302c0.1918,9.9736,0.0778,19.9531,0.0847,29.9302
		c-24.2522-0.0532-48.5045-0.1065-72.7568-0.1594c0.0047-10.3164-0.0151-20.6333,0.0331-30.9498
		c0.0109-2.3293,0.0514-4.1785-3.2594-4.1653c-23.4955,0.0941-46.9916,0.0805-70.4872,0.0053
		c-2.7349-0.0087-3.3521,1.1549-3.3286,3.602c0.0908,9.4839,0.1098,18.97-0.0072,28.4534c-0.033,2.6725,1.0351,3.4109,3.5347,3.397
		c24.4896-0.136,48.9796-0.1955,73.4695-0.2768C845.8669,231.0776,845.8981,231.4193,845.9294,231.761z"/>
	<path style="fill:#924F9E;" d="M928.3535,230.5517c21.6567,0.0514,43.3138,0.0427,64.9698,0.206
		c4.194,0.0316,5.4567-1.7403,5.4525-5.7058c-0.0692-65.7123-0.103-131.4247,0.0419-197.1367
		c0.0129-5.843-3.2071-5.847-7.3662-5.8445c-67.1391,0.0405-134.2783,0.0277-201.4174,0.0283
		c-9.1629,0.0001-18.3273,0.1065-27.488-0.0344c-4.0529-0.0624-5.7933,1.55-5.6337,5.6147
		c0.1564,3.9855-0.0228,7.9833-0.0137,11.9757c0.0073,3.1977-1.6995,4.3634-4.7285,4.3972c-3.1453,0.0351-5.1972-0.897-5.176-4.4562
		c0.0238-3.9922-0.1662-7.9902-0.0095-11.9757c0.1619-4.1155-1.6987-5.8185-5.6963-5.5227
		c-0.9939,0.0735-1.9984,0.0016-2.9979,0.0016c-75.1358-0.0005-150.2717-0.0015-225.4075,0.0009
		c-8.8821,0.0003-8.8805,0.0092-8.8947,8.7822c-0.0046,2.828-0.0499,5.6563-0.023,8.484c0.0287,3.0207-1.2245,4.6555-4.4483,4.6592
		c-3.1752,0.0037-4.5432-1.5208-4.535-4.5836c0.0111-4.1587-0.0876-8.3182-0.0394-12.4762
		c0.0384-3.3135-1.4396-4.9616-4.8124-4.8493c-1.3309,0.0443-2.6652-0.0166-3.9979-0.0166
		c-75.469-0.0012-150.9381-0.0023-226.4071,0.0006c-8.6443,0.0003-8.6419,0.0113-8.6618,8.5179
		c-0.007,2.9943-0.0466,5.9886-0.0399,8.9828c0.0071,3.1505-1.5882,4.4696-4.6834,4.4156c-2.9262-0.051-4.2544-1.4702-4.2662-4.3111
		c-0.018-4.325-0.0885-8.6501-0.0701-12.9749c0.0131-3.0821-1.3982-4.6401-4.5319-4.5988
		c-1.8319,0.0241-3.6647-0.0315-5.4971-0.0316C154.3402,22.0974,76.7056,22.0968-0.929,22.096c0-6.4896,0.117-12.9826-0.066-19.467
		c-0.0608-2.1541,0.4138-2.9443,2.5695-2.5175c0.6413,0.127,1.3292,0.0196,1.9958,0.0196
		c330.6114,0,661.2227,0.0074,991.8341-0.0929c3.748-0.0011,4.6014,0.8411,4.595,4.5857
		c-0.1281,74.3809-0.1256,148.7622,0.0007,223.1431c0.0059,3.4185-0.6667,4.1248-4.0961,4.0952
		c-22.6613-0.1957-45.3251-0.1012-67.988-0.1012C928.0616,231.3579,928.2076,230.9548,928.3535,230.5517z"/>
	<path d="M221.0308,230.8406c0.0397-10.2682,0.3024-20.5427,0.0137-30.8017c-0.1226-4.355,2.1052-4.2737,5.1776-4.2754
		c3.072-0.0017,5.3508-0.0966,5.2045,4.2661c-0.3442,10.2579-0.18,20.5328-0.2213,30.8003c-0.2193,0.28-0.277,0.5906-0.173,0.9312
		c-3.3328,0-6.6656,0-9.9983,0C221.1952,231.4537,221.1942,231.1469,221.0308,230.8406z"/>
	<path d="M453.7661,230.8336c0.005-10.2918,0.1702-20.5872-0.0683-30.8734c-0.0885-3.8188,1.5889-4.4234,4.753-4.181
		c2.7318,0.2093,5.6351-0.7363,5.4677,3.9855c-0.3644,10.2763-0.2351,20.57-0.307,30.8563c-0.2057,0.3798-0.4119,0.7599-0.6181,1.14
		c-2.9995,0-5.999,0-8.9985,0C454.0359,231.423,453.9596,231.1139,453.7661,230.8336z"/>
	<path d="M685.9574,230.8341c0.041-10.2936,0.3107-20.5938,0.0172-30.8778c-0.1284-4.4973,2.3404-4.1102,5.2822-4.1861
		c2.9664-0.0765,4.9957-0.002,4.8577,4.0492c-0.3503,10.2792-0.2535,20.5735-0.3358,30.8619
		c-0.2747,0.3599-0.5493,0.7198-0.8239,1.0797c-2.9995,0-5.999,0-8.9985,0C686.1221,231.4523,686.1225,231.1433,685.9574,230.8341z"
		/>
	<path d="M928.3535,230.5517c-0.1459,0.4031-0.2918,0.8062-0.4377,1.2093c-2.9995,0-5.999,0-8.9985,0
		c0.0242-0.3456-0.069-0.6561-0.2796-0.9315c-0.007-9.9771,0.1071-19.9566-0.0847-29.9302
		c-0.0696-3.6241,0.5805-5.3625,4.8353-5.2302c3.7603,0.1169,5.24,0.9101,5.1233,4.955
		C928.224,210.5932,928.3773,220.575,928.3535,230.5517z"/>
	<path style="fill:#734E9F;" d="M149.0459,231.761c-25.6624,0-51.3248,0-76.9871,0c-0.0954-0.2231-0.1909-0.4462-0.2866-0.6692
		l0.2727-0.3154c24.7485,0.0606,49.497,0.1262,74.2455,0.1598c0.8069,0.0011,1.6142-0.3241,2.4214-0.4972
		c0.1404,0.1381,0.2807,0.2764,0.4205,0.4142C149.0797,231.1533,149.051,231.456,149.0459,231.761z"/>
	<path style="fill:#734E9F;" d="M381.0071,231.761c-25.6624,0-51.3248,0-76.9871,0c-0.0508-0.2692-0.1123-0.5359-0.1844-0.8002
		c0,0,0.2766-0.2806,0.2766-0.2806c12.9629,0.1032,25.9258,0.2893,38.8887,0.286c12.6296-0.0032,25.2592-0.2001,37.8888-0.3119
		c0,0,0.2903,0.2935,0.2898,0.2929C381.1089,231.2153,381.0516,231.4868,381.0071,231.761z"/>
	<path style="fill:#734E9F;" d="M612.9684,231.761c-25.6624,0-51.3247,0-76.9871,0c-0.0126-0.2992-0.0469-0.5959-0.103-0.8901
		c0.1279-0.1299,0.2557-0.2597,0.3837-0.3895c0.8116,0.1593,1.6235,0.4588,2.4349,0.4578
		c24.7668-0.0298,49.5336-0.0892,74.3004-0.1439c0,0,0.2899,0.3456,0.2891,0.3442
		C613.1837,231.3477,613.0781,231.5554,612.9684,231.761z"/>
	<path style="fill:#924F9E;" d="M71.7722,231.0918c0.0957,0.223,0.1912,0.446,0.2866,0.6692
		c-23.0074,0-46.0148,0.0229-69.0218-0.0608c-1.2877-0.0047-3.0777,1.1129-3.966-0.9376
		c22.5811-0.0137,45.1621-0.0352,67.7432-0.0249C68.4669,230.7384,70.1195,230.9684,71.7722,231.0918z"/>
	<path style="fill:#924F9E;" d="M303.8356,230.9608c0.0721,0.2643,0.1336,0.531,0.1844,0.8002c-24.3293,0-48.6585,0-72.9878,0
		c-0.104-0.3406-0.0462-0.6512,0.173-0.9312C255.4152,230.8739,279.6254,230.9173,303.8356,230.9608z"/>
	<path style="fill:#924F9E;" d="M381.0071,231.761c0.0445-0.2742,0.1018-0.5457,0.1724-0.8139
		c24.1957-0.0378,48.391-0.0762,72.5864-0.1141c0.1937,0.2809,0.2699,0.59,0.229,0.928
		C429.6657,231.761,405.3364,231.761,381.0071,231.761z"/>
	<path style="fill:#924F9E;" d="M535.8783,230.8709c0.0561,0.2942,0.0904,0.5909,0.103,0.8901c-24.3293,0-48.6585,0-72.9878,0
		c0.2062-0.3801,0.4124-0.7602,0.6181-1.14C487.7001,230.7045,511.7892,230.7877,535.8783,230.8709z"/>
	<path style="fill:#924F9E;" d="M612.9684,231.761c0.1097-0.2056,0.2153-0.4133,0.3179-0.6215
		c9.773-0.9111,19.568-0.3315,29.3511-0.3903c14.4392-0.0867,28.8797,0.0447,43.3198,0.0841c0.1652,0.31,0.1649,0.619-0.0011,0.9277
		C661.627,231.761,637.2976,231.761,612.9684,231.761z"/>
	<path style="fill:#924F9E;" d="M694.9547,231.761c0.2746-0.3599,0.5492-0.7198,0.8239-1.0797
		c21.6207,0.012,43.2415,0.0141,64.8621,0.0497c2.4689,0.0041,5.0181-0.3661,7.3018,1.0301
		C743.6132,231.761,719.2839,231.761,694.9547,231.761z"/>
	<path style="fill:#924F9E;" d="M918.6376,230.8295c0.2106,0.2753,0.3038,0.5858,0.2796,0.9315c-24.3292,0-48.6585,0-72.9878,0
		c-0.0313-0.3417-0.0626-0.6834-0.0938-1.0251l0.0452-0.0661C870.1331,230.7231,894.3854,230.7763,918.6376,230.8295z"/>
	<path style="fill:#924F9E;" d="M149.0459,231.761c0.0051-0.305,0.0337-0.6077,0.0864-0.9078
		c23.9663-0.0045,47.9323-0.0095,71.8984-0.0135c0.1635,0.3072,0.1645,0.614,0.0032,0.9214
		C197.0379,231.761,173.0419,231.761,149.0459,231.761z"/>
	<path d="M148.7118,230.439c-0.8071,0.1731-1.6145,0.4983-2.4214,0.4972c-24.7485-0.0336-49.497-0.0991-74.2455-0.1598
		c-0.0671-10.6095-0.0793-21.2199-0.2397-31.828c-0.0404-2.6688,1.095-3.386,3.5679-3.3803
		c23.2517,0.054,46.5037,0.073,69.7552-0.0188c3.1399-0.0124,3.4454,1.6083,3.4451,4.049
		C148.5721,209.8786,148.6579,220.1588,148.7118,230.439z"/>
	<path d="M380.8898,230.6543c-12.6296,0.1118-25.2592,0.3087-37.8888,0.3119c-12.9629,0.0033-25.9258-0.1828-38.8887-0.286
		c-0.0193-10.3079,0.0769-20.618-0.1249-30.9224c-0.0646-3.2983,1.0362-4.2399,4.2651-4.2239
		c22.81,0.1129,45.6215,0.1359,68.431-0.0163c3.7289-0.0249,4.3712,1.4564,4.313,4.7124
		C380.8155,210.3688,380.9051,220.5125,380.8898,230.6543z"/>
	<path d="M612.9973,230.7953c-24.7668,0.0547-49.5336,0.1141-74.3004,0.1439c-0.8114,0.001-1.6233-0.2985-2.4349-0.4578
		c0.035-10.1361,0.1876-20.2739,0.0398-30.4074c-0.0504-3.4494,1.0566-4.5686,4.5473-4.5486
		c22.6325,0.1296,45.2662,0.1204,67.8989,0.008c3.3163-0.0165,4.8204,0.7477,4.6841,4.395
		C613.048,210.2107,613.8391,220.5143,612.9973,230.7953z"/>
	<path d="M845.8356,230.7359c-24.4899,0.0813-48.9799,0.1408-73.4695,0.2768c-2.4996,0.0139-3.5676-0.7245-3.5347-3.397
		c0.117-9.4833,0.098-18.9695,0.0072-28.4534c-0.0235-2.4471,0.5937-3.6107,3.3286-3.602
		c23.4956,0.0752,46.9917,0.0889,70.4872-0.0053c3.3108-0.0132,3.2703,1.8359,3.2594,4.1653
		c-0.0482,10.3165-0.0284,20.6334-0.0331,30.9498C845.8809,230.6698,845.8356,230.7359,845.8356,230.7359z"/>
</g>
</svg>
