<?xml version="1.0" encoding="utf-8"?>
<!-- Generator: Adobe Illustrator 27.2.0, SVG Export Plug-In . SVG Version: 6.00 Build 0)  -->
<svg version="1.1" id="Layer_1" xmlns="http://www.w3.org/2000/svg" xmlns:xlink="http://www.w3.org/1999/xlink" x="0px" y="0px"
	 viewBox="0 0 512 521" style="enable-background:new 0 0 512 521;" xml:space="preserve">
<path d="M227.6144,202.6706l-20.8808-22.1771c-1.639-1.7407-1.5565-4.4805,0.1842-6.1196l3.4885-3.2847
	c1.7407-1.639,4.4805-1.5565,6.1196,0.1842l20.8809,22.1771c1.6389,1.7407,1.5565,4.4805-0.1842,6.1196l-3.4886,3.2847
	C231.9932,204.4939,229.2534,204.4114,227.6144,202.6706z"/>
<path d="M228.3828,206.3211l-17.9343,1.5392c-1.9179,0.1646-3.7876-2.2949-4.1761-5.4936l0,0
	c-0.3885-3.1986,0.8512-5.9251,2.7691-6.0897l17.9343-1.5392c1.9179-0.1646,3.7876,2.2949,4.1762,5.4936l0,0
	C231.5405,203.43,230.3006,206.1565,228.3828,206.3211z"/>
<path d="M237.0838,200.3115l-5.9344-23.0659c-0.4953-1.9252,0.6639-3.8874,2.589-4.3827l1.2562-0.3232
	c1.9252-0.4953,3.8874,0.6639,4.3827,2.589l5.9344,23.0659c0.4953,1.9252-0.6639,3.8874-2.589,4.3827l-1.2562,0.3232
	C239.5412,203.3958,237.579,202.2366,237.0838,200.3115z"/>
<path d="M318.9566,208.2295c-2.6947-0.0026-5.3102,0.3366-7.8054,0.9764c-11.7458-13.6904-28.1472-22.2105-46.3144-22.228
	c-35.7604-0.0345-64.7817,32.8445-64.8209,73.4375l-0.0293,30.3977l-0.0001,0.1023l-0.016,16.6023
	c-0.0037,3.8095,3.0815,6.9007,6.8911,6.9043l115.7045,0.1116c3.8095,0.0037,6.9007-3.0815,6.9044-6.8911l0.016-16.6023
	l0.0001-0.1023l0.0211-21.9354c12.0449-4.34,20.6643-15.8752,20.6774-29.4351
	C350.2018,222.2766,336.2204,208.2461,318.9566,208.2295z M329.515,261.4909c-3.2084,1.5552-6.8083,2.427-10.6122,2.4233
	c-13.4418-0.013-24.3281-10.9374-24.3151-24.4003c0.012-12.4175,9.2943-22.6499,21.2828-24.1552
	c1.0093-0.1267,2.0355-0.199,3.0793-0.198c13.4418,0.013,24.3281,10.9374,24.3151,24.4003
	C343.2556,249.214,337.6445,257.5501,329.515,261.4909z"/>
<circle cx="327.9968" cy="238.5428" r="11.3439"/>
<path d="M261.1154,343.6219V317.246c0-6.8362-4.975-12.3781-11.1118-12.3781h-23.6777c-6.1369,0-11.1118,5.5418-11.1118,12.3781
	v26.3759c0,6.8362,4.975,12.3781,11.1118,12.3781h23.6777C256.1405,356,261.1154,350.4582,261.1154,343.6219z"/>
<path d="M317.5023,328.3011v-9.1738c0-7.25-4.9749-13.1273-11.1118-13.1273h-23.6777c-6.1369,0-11.1118,5.8773-11.1118,13.1273
	v9.1738c0,7.25,4.9749,13.1273,11.1118,13.1273h23.6777C312.5274,341.4283,317.5023,335.5511,317.5023,328.3011z"/>
</svg>
