<?xml version="1.0" encoding="utf-8"?>
<!-- Generator: Adobe Illustrator 27.2.0, SVG Export Plug-In . SVG Version: 6.00 Build 0)  -->
<svg version="1.1" id="Layer_1" xmlns="http://www.w3.org/2000/svg" xmlns:xlink="http://www.w3.org/1999/xlink" x="0px" y="0px"
	 viewBox="0 0 512 521" style="enable-background:new 0 0 512 521;" xml:space="preserve">
<path d="M232.614,197.8704l-19.1424-23.6938c-1.5025-1.8598-1.213-4.5854,0.6469-6.0881l3.7271-3.0112
	c1.8598-1.5025,4.5854-1.213,6.0881,0.6469l19.1425,23.6938c1.5025,1.8598,1.213,4.5854-0.6469,6.0881l-3.7271,3.0112
	C236.8423,200.0198,234.1166,199.7303,232.614,197.8704z"/>
<path d="M227.8957,205.9435l-14.5981-10.531c-1.5612-1.1263-1.3742-4.21,0.4177-6.888l0,0c1.7919-2.678,4.5099-3.936,6.071-2.8098
	l14.5981,10.531c1.5611,1.1263,1.3742,4.21-0.4176,6.8881l0,0C232.175,205.8117,229.4569,207.0697,227.8957,205.9435z"/>
<path d="M238.786,195.1289l2.6471-23.6696c0.221-1.9756,2.0016-3.398,3.9771-3.1771l1.2891,0.1443
	c1.9756,0.221,3.398,2.0016,3.1771,3.9771l-2.6471,23.6696c-0.221,1.9755-2.0016,3.398-3.9771,3.1771l-1.2891-0.1443
	C239.9875,198.885,238.5651,197.1045,238.786,195.1289z"/>
<path d="M322.3757,213.326c-2.6783-0.2966-5.3152-0.2449-7.8653,0.1189c-10.1819-14.8904-25.5557-25.1491-43.6125-27.1488
	c-35.5431-3.9362-67.9786,25.58-72.4467,65.9263l-3.3459,30.213l-0.0113,0.1017l-1.8274,16.5014
	c-0.4193,3.7863,2.3101,7.1957,6.0965,7.615l115.0015,12.7357c3.7864,0.4193,7.1957-2.3102,7.6151-6.0965l1.8274-16.5014
	l0.0112-0.1017l2.4144-21.8021c12.4464-2.9998,22.273-13.5257,23.7656-27.0032
	C351.9017,230.6985,339.5346,215.2262,322.3757,213.326z M327.0597,267.4214c-3.3589,1.1958-7.0325,1.6697-10.8132,1.251
	c-13.3601-1.4796-22.9894-13.5265-21.5075-26.9076c1.3668-12.342,11.7101-21.5006,23.7914-21.6887
	c1.0171-0.0159,2.0451,0.0242,3.0825,0.1391c13.3601,1.4796,22.9894,13.5265,21.5075,26.9076
	C342.0578,256.7172,335.5706,264.3913,327.0597,267.4214z"/>
<circle cx="327.475" cy="241.2865" r="11.3439"/>
<path d="M250.0036,360h-23.6777c-6.1369,0-11.1118-6.9365-11.1118-15.4931v-33.0137c0-8.5567,4.9749-15.4931,11.1118-15.4931
	h23.6777c6.1369,0,11.1118,6.9365,11.1118,15.4931v33.0137C261.1154,353.0635,256.1404,360,250.0036,360z"/>
<path d="M306.4974,336.5326h-23.6777c-6.1368,0-11.1118-4.9749-11.1118-11.1118v-7.7653c0-6.1368,4.9749-11.1118,11.1118-11.1118
	h23.6777c6.1368,0,11.1118,4.9749,11.1118,11.1118v7.7653C317.6092,331.5576,312.6342,336.5326,306.4974,336.5326z"/>
</svg>
