<?xml version="1.0" encoding="utf-8"?>
<!-- Generator: Adobe Illustrator 27.2.0, SVG Export Plug-In . SVG Version: 6.00 Build 0)  -->
<svg version="1.1" id="Layer_1" xmlns="http://www.w3.org/2000/svg" xmlns:xlink="http://www.w3.org/1999/xlink" x="0px" y="0px"
	 viewBox="0 0 512 521" style="enable-background:new 0 0 512 521;" xml:space="preserve">
<path d="M226.4069,84.0266c-0.0943,0.012-0.1828,0.0798-0.2612,0.1344c-0.1781,0.1242-0.2655,0.3392-0.2647,0.5826
	c-0.5694,3.9484-0.4819,7.9194-0.3173,11.8931c0.1658,4.001,1.7673,7.4425,4.0194,10.6674
	c0.8882,1.2718,1.7822,2.6042,2.3172,4.0416c0.6574,1.7661,0.9774,3.6632,1.3784,5.5177c0.4578,2.117,0.6003,4.3353,1.3121,6.3574
	c1.5253,4.3333,3.3068,8.5775,5.0302,12.8392c0.587,1.4515,1.0249,2.9776,2.3493,4.0654c0.5558,0.4565,0.9187,1.2929,1.106,2.0241
	c0.4598,1.7944,0.7811,3.6252,1.132,5.4464c0.6617,3.4341,1.2767,6.8774,1.966,10.3058c0.4632,2.3035,0.9966,4.5938,1.5447,6.8789
	c0.3803,1.5857,0.7876,3.169,1.2811,4.7222c0.3153,0.9923,0.9366,1.8941,1.2019,2.8945c1.1795,4.4486,2.3499,8.902,3.3827,13.3861
	c0.612,2.657,1.3614,5.3758,1.3519,8.0644c-0.0251,7.0731-0.5206,14.1326-1.6141,21.1438c-0.7085,4.5425-1.307,9.0945-0.925,13.7429
	c0.3056,3.7187,0.8049,7.4657,0.0942,11.2084c-0.0414,0.2178,0.058,0.5592,0.2179,0.7029c1.294,1.1629,1.392,2.6931,1.2967,4.2485
	c-0.3177,5.1873-1.5115,10.2106-2.8777,15.2039c-0.2406,0.8794-0.4465,1.8673-0.2919,2.7382
	c0.6152,3.4648,1.3828,6.9025,2.0876,10.3516c0.3523,1.724,0.6965,3.4497,1.0423,5.175c0.1241,0.6193,0.6938,1.0465,1.3231,0.9926
	l16.3499-1.4005c0.5474-0.0469,1-0.4479,1.1105-0.9861c0.7461-3.6338,1.4348-7.2813,2.2988-10.8868
	c0.9099-3.7971,2.189-7.5095,3.0094-11.3229c0.6853-3.1859,0.9601-6.4616,1.3796-9.7024c0.1713-1.3237,0.3915-2.6682,0.3192-3.9885
	c-0.0659-1.2025-0.5281-2.3789-0.7631-3.5771c-1.3918-7.0967-1.5239-14.3067-1.8926-21.4931
	c-0.1248-2.4318-0.1682-4.8667-0.1635-7.3017c0.0056-2.9798-0.036-5.9706,0.149-8.9443c0.201-3.2301,0.4277-6.4725,0.9242-9.666
	c0.453-2.9136,1.1548-5.8261,3.6952-7.8142c0.2523-0.1974,0.4388-0.5019,0.601-0.7878c0.9004-1.5873,1.7123-3.2294,2.6873-4.7688
	c2.3734-3.7477,4.8658-7.4203,7.2203-11.1796c1.5001-2.3952,2.9533-4.8322,3.7242-7.5992c0.5179-1.859,1.0626-3.7116,1.6461-5.551
	c1.1154-3.5162,2.3066-7.0088,3.3905-10.5345c0.7861-2.5571,1.4564-5.1499,2.166-7.7302c0.3642-1.3242,0.9439-2.6448,1.0049-3.9861
	c0.1722-3.7934,0.1246-7.5967,0.1678-11.3961c0.0616-5.4159,1.2903-10.6034,2.9438-15.7316
	c2.1354-6.6227,4.1533-13.2835,6.1889-19.938c0.1109-0.3627,0.0353-0.8829-0.1528-1.2178
	c-0.5481-0.9759-0.6894-1.9354-0.4876-3.0551c0.4164-2.3104,0.9687-4.6478,0.9553-6.9712
	c-0.0164-2.8511-0.4959-5.7071-0.8875-8.5455c-0.1596-1.1571-0.5742-2.1896-1.37-3.0441c-0.6644-0.7134-1.8423-0.4417-2.1163,0.4939
	c-0.1618,0.5525-0.3067,1.0999-0.3979,1.6562c-0.2873,1.7521-0.7054,3.3586-2.3779,4.0872
	c-0.5169,0.2252-0.7955,0.7956-0.6902,1.3495c0.8518,4.4821-1.4172,7.9171-3.6517,11.4274
	c-0.464,0.7289-1.5279,0.7857-2.0353,0.0863c-0.4936-0.6803-0.7564-1.4536-1.0775-2.168
	c-1.7909-3.9851-2.2522-8.2797-2.8672-12.5447c-0.1552-1.0763-0.6297-2.1476-1.1508-3.1172
	c-0.4264-0.7932-1.1138-1.4565-1.7364-2.1302c-0.4406-0.4769-1.1518-0.7829-1.4211-1.3248
	c-1.0148-2.0419-1.9463-4.1293-2.8126-6.2393c-0.5092-1.2401-0.807-2.5654-1.2562-3.8324
	c-0.3042-0.8582-0.5528-1.8005-1.0933-2.4985c-1.6644-2.1496-3.4271-4.2258-5.2092-6.2805
	c-0.9093-1.0484-1.9111-1.9892-3.0933-2.7978c-0.8928-0.6107-2.0876,0.1098-1.9455,1.1821c0.0813,0.614,0.167,1.2106,0.2711,1.804
	c0.6223,3.5509,1.4485,7.0742,1.8876,10.6467c0.5039,4.0993,1.3727,8.1412,2.6079,12.0823
	c0.4098,1.3075,0.6289,2.6723,0.7933,4.0535c0.1007,1.1936,0.1239,2.0892,0.1093,2.755c-0.0282,1.2894-0.198,1.7166-0.2196,1.7769
	l0.0004,0.0006c-0.0152,0.0017-0.2322,0.126-0.4499,0.257c-0.2177,0.131-0.4362,0.2685-0.4545,0.2965
	c-0.0134,0.0206-0.0268,0.0413-0.04,0.062c-1.2347,1.9261-1.9373,2.1712-4.1606,1.7428c-0.1796-0.0346-0.3626-0.051-0.549-0.0554
	c-0.8858-0.0212-1.4976,0.8864-1.1707,1.71l0.0058,0.0145c0.8795,2.2263,2.4828,3.9498,4.3947,5.1867
	c3.0847,1.9958,4.512,4.7477,4.5249,8.2757c0.0115,3.1376-0.1449,6.277-0.2951,9.4126c-0.4822-0.0327-0.9093,0.4702-0.9542,1.1238
	c-0.0066,0.0956-0.0023,0.188,0.0074,0.2781c-0.0195,0.2949-0.083,0.597-0.1866,0.8975c-0.6118,1.7753-2.5742,3.4866-4.518,3.2232
	c-2.1275-0.2883-3.8607,0.6656-5.3835,2.0318c-0.2343,0.2102-0.3639,0.6741-0.3431,1.0084
	c0.0955,1.5404,1.3526,1.9303,2.4994,2.4481c1.2816,0.5786,2.9326,0.4462,3.7473,1.9454c0.2491,0.4584,0.5821,0.8706,0.8669,1.3102
	c1.3121,2.0255,0.727,6.0931-1.3294,7.3751c-2.2501,1.4028-3.6687,3.3517-4.7574,5.6563c-0.4525,0.9579-1.1828,1.4512-2.2849,1.521
	c-2.3564,0.1491-4.7059,0.4041-7.0614,0.5725c-0.4174,0.0298-0.9388-0.0261-1.2578-0.2563
	c-0.815-0.5881-1.6788-1.1926-2.2812-1.9764c-2.0921-2.7224-4.7871-4.5595-7.8792-5.9695c-1.1536-0.526-2.3513-1.3163-3.0957-2.3105
	c-2.168-2.8952-4.2792-5.8589-6.1128-8.9724c-2.5523-4.3337-4.8294-8.8294-7.227-13.2543
	c-0.2013-0.3715-0.5853-0.9431-0.8557-1.2677c-1.4335-1.7204-3.1542-3.1275-4.9686-4.4408c-0.3557-0.2575-0.568-0.7282-0.812-1.1219
	c-0.6574-1.061-1.3088-2.1258-1.9596-3.1908c-0.1358-0.2223-0.3939-0.3385-0.6504-0.293"/>
</svg>
