<?xml version="1.0" encoding="utf-8"?>
<!-- Generator: Adobe Illustrator 27.2.0, SVG Export Plug-In . SVG Version: 6.00 Build 0)  -->
<svg version="1.1" id="Layer_1" xmlns="http://www.w3.org/2000/svg" xmlns:xlink="http://www.w3.org/1999/xlink" x="0px" y="0px"
	 viewBox="0 0 512 521" style="enable-background:new 0 0 512 521;" xml:space="preserve">
<path d="M320.8,204.8l-4.6-1.5c-2.3-0.7-3.5-3.2-2.8-5.5l9.5-28.9c0.7-2.3,3.2-3.5,5.5-2.8l4.6,1.5c2.3,0.7,3.5,3.2,2.8,5.5
	l-9.5,28.9C325.5,204.3,323,205.6,320.8,204.8z"/>
<path d="M325.5,206.5L325.5,206.5c-2.4-2.2-3.2-5.2-2-6.6l11.8-13.6c1.3-1.5,4.2-0.8,6.6,1.4l0,0c2.4,2.2,3.2,5.2,2,6.6l-11.8,13.6
	C330.8,209.3,327.9,208.7,325.5,206.5z"/>
<path d="M317.7,206.6l-1.2,0.6c-1.8,0.9-3.9,0.2-4.8-1.6l-10.6-21.3c-0.9-1.8-0.2-3.9,1.6-4.8l1.2-0.6c1.8-0.9,3.9-0.2,4.8,1.6
	l10.6,21.3C320.3,203.6,319.5,205.8,317.7,206.6z"/>
<path d="M198.9,240.8c0.2,13.6,9,25,21.2,29.1l0.4,21.9l0,0.1l0.3,16.6c0.1,3.8,3.2,6.8,7,6.8l115.7-2c3.8-0.1,6.8-3.2,6.8-7
	l-0.3-16.6l0-0.1l-0.5-30.4c-0.7-40.6-30.3-73-66-72.4c-18.2,0.3-34.4,9.1-45.9,23c-2.5-0.6-5.1-0.9-7.8-0.8
	C212.3,209.3,198.6,223.5,198.9,240.8z M205.8,240.7c-0.2-13.5,10.5-24.6,23.9-24.8c1,0,2.1,0,3.1,0.1c12,1.3,21.5,11.4,21.7,23.8
	c0.2,13.5-10.5,24.6-23.9,24.8c-3.8,0.1-7.4-0.7-10.7-2.2C211.7,258.6,206,250.3,205.8,240.7z"/>
<circle cx="221.1" cy="245.4" r="11.3"/>
<path d="M266.4,350.8h-23.7c-6.1,0-11.1-5-11.1-11.1V316c0-6.1,5-11.1,11.1-11.1h23.7c6.1,0,11.1,5,11.1,11.1v23.7
	C277.5,345.8,272.5,350.8,266.4,350.8z"/>
<path d="M322.7,342.8h-23.7c-6.1,0-11.1-6.3-11.1-14.1v-9.8c0-7.8,5-14.1,11.1-14.1h23.7c6.1,0,11.1,6.3,11.1,14.1v9.8
	C333.9,336.5,328.9,342.8,322.7,342.8z"/>
</svg>
