<?xml version="1.0" encoding="utf-8"?>
<!-- Generator: Adobe Illustrator 27.2.0, SVG Export Plug-In . SVG Version: 6.00 Build 0)  -->
<svg version="1.1" id="Layer_1" xmlns="http://www.w3.org/2000/svg" xmlns:xlink="http://www.w3.org/1999/xlink" x="0px" y="0px"
	 viewBox="0 0 512 521" style="enable-background:new 0 0 512 521;" xml:space="preserve">
<path d="M308.8,199.1l-3.1-3.7c-1.5-1.8-1.3-4.6,0.5-6.1l23.3-19.6c1.8-1.5,4.6-1.3,6.1,0.5l3.1,3.7c1.5,1.8,1.3,4.6-0.5,6.1
	l-23.3,19.6C313.1,201.1,310.4,200.9,308.8,199.1z"/>
<path d="M312,202.9L312,202.9c-0.8-3.1,0-6.1,1.8-6.7l17.2-5.2c1.8-0.6,4,1.5,4.8,4.6l0,0c0.8,3.1,0,6.1-1.8,6.7l-17.2,5.2
	C315,208.1,312.8,206,312,202.9z"/>
<path d="M301.8,198.4l-1.2-0.4c-1.9-0.6-2.9-2.7-2.3-4.6l7.6-22.6c0.6-1.9,2.7-2.9,4.6-2.3l1.2,0.4c1.9,0.6,2.9,2.7,2.3,4.6
	l-7.6,22.6C305.7,198,303.7,199.1,301.8,198.4z"/>
<path d="M196.6,243.6c0.7,13.5,10,24.6,22.2,28.3l1.2,21.9l0,0.1l0.9,16.6c0.2,3.8,3.5,6.7,7.3,6.5l115.5-6.3
	c3.8-0.2,6.7-3.5,6.5-7.3l-0.9-16.6l0-0.1l-1.6-30.4c-2.2-40.5-32.9-71.8-68.6-69.9c-18.1,1-34.1,10.4-45.1,24.7
	c-2.5-0.5-5.2-0.7-7.8-0.6C208.9,211.5,195.7,226.3,196.6,243.6z M203.5,243.2c-0.7-13.4,9.6-24.9,23-25.7c1-0.1,2.1,0,3.1,0
	c12.1,0.9,21.9,10.6,22.5,23c0.7,13.4-9.6,24.9-23,25.7c-3.8,0.2-7.4-0.5-10.7-1.9C210.1,260.9,204,252.8,203.5,243.2z"/>
<circle cx="222.3" cy="234" r="11.3"/>
<path d="M293.2,350.8h23.7c6.1,0,11.1-5,11.1-11.1V316c0-6.1-5-11.1-11.1-11.1h-23.7c-6.1,0-11.1,5-11.1,11.1v23.7
	C282,345.8,287,350.8,293.2,350.8z"/>
<path d="M240.4,330H264c6.1,0,11.1-3.7,11.1-8.2v-5.7c0-4.5-5-8.2-11.1-8.2h-23.7c-6.1,0-11.1,3.7-11.1,8.2v5.7
	C229.3,326.3,234.2,330,240.4,330z"/>
</svg>
