<?xml version="1.0" encoding="utf-8"?>
<!-- Generator: Adobe Illustrator 27.2.0, SVG Export Plug-In . SVG Version: 6.00 Build 0)  -->
<svg version="1.1" id="Layer_1" xmlns="http://www.w3.org/2000/svg" xmlns:xlink="http://www.w3.org/1999/xlink" x="0px" y="0px"
	 viewBox="0 0 512 521" style="enable-background:new 0 0 512 521;" xml:space="preserve">
<path d="M222.8349,202.0755l-9.5321-28.9304c-0.7482-2.2708,0.4861-4.7182,2.7569-5.4665l4.5509-1.4995
	c2.2708-0.7482,4.7182,0.4861,5.4665,2.7569l9.5322,28.9305c0.7482,2.2708-0.4861,4.7182-2.7569,5.4665l-4.5509,1.4995
	C226.0305,205.5808,223.5831,204.3465,222.8349,202.0755z"/>
<path d="M216.9998,207.8364l-11.8229-13.573c-1.2643-1.4515-0.3814-4.4122,1.9722-6.6128l0,0
	c2.3535-2.2007,5.2864-2.8081,6.5507-1.3566l11.823,13.573c1.2643,1.4515,0.3814,4.4121-1.9721,6.613l0,0
	C221.1971,208.6805,218.2642,209.2878,216.9998,207.8364z"/>
<path d="M229.6945,201.815l10.5573-21.3494c0.8812-1.7819,3.0401-2.5121,4.8219-1.631l1.1627,0.575
	c1.7819,0.8812,2.5121,3.0401,1.631,4.8219l-10.5573,21.3494c-0.8812,1.7819-3.04,2.5121-4.8219,1.631l-1.1627-0.575
	C229.5435,205.7557,228.8133,203.5969,229.6945,201.815z"/>
<path d="M319.4712,208.9617c-2.6943-0.0466-5.3149,0.2499-7.8203,0.8489c-11.5208-13.8803-27.781-22.6668-45.9455-22.9808
	c-35.7551-0.618-65.3091,31.783-66.0106,72.37l-0.5254,30.3932l-0.0018,0.1023l-0.2869,16.5998
	c-0.0658,3.809,2.9685,6.95,6.7775,7.0159l115.6873,1.9997c3.8089,0.0659,6.95-2.9685,7.0159-6.7775l0.2869-16.5998l0.0018-0.1023
	l0.3791-21.9321c12.1141-4.1429,20.9206-15.5359,21.155-29.0938C350.4831,223.5169,336.7324,209.2601,319.4712,208.9617z
	 M329.1591,262.3883c-3.2334,1.5027-6.847,2.3156-10.6503,2.2499c-13.4398-0.2323-24.1463-11.3329-23.9137-24.7938
	c0.2146-12.4156,9.6626-22.4953,21.6741-23.8047c1.0113-0.1102,2.0385-0.1658,3.0821-0.1478
	c13.4398,0.2323,24.1463,11.3329,23.9137,24.7938C343.0982,250.3374,337.3518,258.5808,329.1591,262.3883z"/>
<circle cx="328.0166" cy="245.4021" r="11.3439"/>
<path d="M271.601,339.6574l0-23.6777c0-6.1369,4.975-11.1118,11.1118-11.1118h23.6777c6.1369,0,11.1118,4.9749,11.1118,11.1118
	v23.6777c0,6.1369-4.9749,11.1118-11.1118,11.1118h-23.6777C276.576,350.7692,271.6011,345.7943,271.601,339.6574z"/>
<path d="M215.2142,328.7532v-9.8255c0-7.765,4.975-14.0598,11.1118-14.0598h23.6777c6.1369,0,11.1118,6.2949,11.1118,14.0598v9.8255
	c0,7.765-4.975,14.0598-11.1118,14.0598H226.326C220.1892,342.813,215.2142,336.5181,215.2142,328.7532z"/>
</svg>
