<?xml version="1.0" encoding="utf-8"?>
<!-- Generator: Adobe Illustrator 27.2.0, SVG Export Plug-In . SVG Version: 6.00 Build 0)  -->
<svg version="1.1" id="Layer_1" xmlns="http://www.w3.org/2000/svg" xmlns:xlink="http://www.w3.org/1999/xlink" x="0px" y="0px"
	 viewBox="0 0 512 521" style="enable-background:new 0 0 512 521;" xml:space="preserve">
<path d="M222.8585,205.5631l-17.0502-25.2412c-1.3383-1.9812-0.8171-4.6722,1.1641-6.0107l3.9706-2.6821
	c1.9812-1.3383,4.6722-0.8171,6.0106,1.1641l17.0503,25.2413c1.3383,1.9812,0.8171,4.6723-1.1641,6.0107l-3.9706,2.6821
	C226.8879,208.0656,224.1969,207.5444,222.8585,205.5631z"/>
<path d="M220.8399,211.4905l-16.8364-6.3674c-1.8005-0.681-2.4227-3.7071-1.3899-6.7592l0,0
	c1.0329-3.0521,3.3297-4.9744,5.1301-4.2934l16.8364,6.3674c1.8005,0.681,2.4227,3.7071,1.39,6.7593l0,0
	C224.9372,210.2492,222.6403,212.1714,220.8399,211.4905z"/>
<path d="M233.0319,204.8613l-3.0176-23.6251c-0.2518-1.9718,1.1425-3.7746,3.1143-4.0264l1.2867-0.1643
	c1.9718-0.2518,3.7745,1.1425,4.0264,3.1143l3.0176,23.6251c0.2518,1.9718-1.1425,3.7746-3.1143,4.0265l-1.2867,0.1643
	C235.0864,208.2274,233.2837,206.8331,233.0319,204.8613z"/>
<path d="M317.0911,205.5979c-2.6909,0.1436-5.2841,0.6241-7.7409,1.3983c-12.471-13.0332-29.3104-20.6511-47.4518-19.6832
	c-35.7096,1.9052-62.9048,36.3099-60.7422,76.8453l1.6195,30.3546l0.0054,0.1021l0.8845,16.5787
	c0.203,3.8041,3.4513,6.7234,7.2554,6.5204l115.5403-6.1644c3.8041-0.203,6.7234-3.4513,6.5204-7.2554l-0.8845-16.5787
	l-0.0055-0.1021l-1.1686-21.9043c11.7918-4.9869,19.7728-16.9726,19.0504-30.5133
	C349.0523,217.9297,334.3304,204.6782,317.0911,205.5979z M330.5229,258.2083c-3.1193,1.7269-6.6667,2.7927-10.4651,2.9954
	c-13.4227,0.7161-24.8855-9.6017-25.6027-23.0455c-0.6616-12.3999,8.052-23.1207,19.9413-25.274
	c1.0009-0.1813,2.0217-0.3092,3.064-0.3648c13.4227-0.7161,24.8855,9.6017,25.6028,23.0455
	C343.5775,245.2042,338.4267,253.8324,330.5229,258.2083z"/>
<circle cx="328.8739" cy="239.3093" r="11.3439"/>
<path d="M271.601,339.6574l0-23.6777c0-6.1369,4.975-11.1118,11.1118-11.1118h23.6777c6.1369,0,11.1118,4.9749,11.1118,11.1118
	v23.6777c0,6.1369-4.9749,11.1118-11.1118,11.1118h-23.6777C276.576,350.7692,271.6011,345.7943,271.601,339.6574z"/>
<path d="M215.2142,320.6956v-5.9428c0-4.6966,4.975-8.5039,11.1118-8.5039h23.6777c6.1369,0,11.1118,3.8074,11.1118,8.5039v5.9428
	c0,4.6966-4.975,8.5039-11.1118,8.5039H226.326C220.1892,329.1995,215.2142,325.3922,215.2142,320.6956z"/>
</svg>
