<?xml version="1.0" encoding="utf-8"?>
<!-- Generator: Adobe Illustrator 27.2.0, SVG Export Plug-In . SVG Version: 6.00 Build 0)  -->
<svg version="1.1" id="Layer_1" xmlns="http://www.w3.org/2000/svg" xmlns:xlink="http://www.w3.org/1999/xlink" x="0px" y="0px"
	 viewBox="0 0 512 521" style="enable-background:new 0 0 512 521;" xml:space="preserve">
<path d="M231.8074,199.5923l-23.2932-19.628c-1.8283-1.5406-2.0616-4.2717-0.521-6.1001l3.0876-3.6642
	c1.5406-1.8283,4.2717-2.0616,6.1001-0.521l23.2933,19.628c1.8283,1.5406,2.0616,4.2717,0.521,6.1001l-3.0876,3.6642
	C236.3669,200.8998,233.6358,201.133,231.8074,199.5923z"/>
<path d="M229.9242,207.505l-17.2257-5.2234c-1.8421-0.5586-2.666-3.5362-1.8402-6.6508l0,0
	c0.8258-3.1145,2.9884-5.1866,4.8305-4.6279l17.2257,5.2234c1.8421,0.5586,2.666,3.5362,1.8404,6.6508l0,0
	C233.9291,205.9916,231.7663,208.0636,229.9242,207.505z"/>
<path d="M240.3972,196.1612l-7.5816-22.5781c-0.6327-1.8845,0.3819-3.9251,2.2664-4.558l1.2296-0.4129
	c1.8845-0.6327,3.9251,0.3819,4.558,2.2663l7.5816,22.5781c0.6327,1.8845-0.3819,3.9251-2.2664,4.558l-1.2296,0.4129
	C243.0706,199.0603,241.0299,198.0456,240.3972,196.1612z"/>
<path d="M320.6409,210.6081c-2.6908-0.1456-5.3205,0.0543-7.8462,0.5608c-11.0027-14.2945-26.9288-23.6729-45.0695-24.6545
	c-35.7082-1.9322-66.4334,29.3604-68.6268,69.8941l-1.6424,30.3533l-0.0055,0.1021l-0.897,16.578
	c-0.2058,3.804,2.711,7.0545,6.5149,7.2603l115.5356,6.2517c3.804,0.2058,7.0545-2.711,7.2603-6.515l0.8971-16.578l0.0055-0.1021
	l1.1852-21.9034c12.2582-3.6946,21.4777-14.7562,22.2103-28.2963C351.0966,226.2936,337.8795,211.5409,320.6409,210.6081z
	 M328.3579,264.3548c-3.2864,1.3827-6.9276,2.0623-10.7258,1.8568c-13.4222-0.7263-23.7133-12.213-22.9859-25.6562
	c0.6709-12.3994,10.4832-22.1248,22.5347-22.9917c1.0146-0.073,2.0432-0.0907,3.0854-0.0343
	c13.4222,0.7263,23.7133,12.213,22.9859,25.6562C342.7307,252.8244,336.6851,260.851,328.3579,264.3548z"/>
<circle cx="324.4561" cy="234.0424" r="11.3439"/>
<path d="M264.7087,339.6574v-23.6777c0-6.1369-4.975-11.1118-11.1118-11.1118h-23.6777c-6.1369,0-11.1118,4.9749-11.1118,11.1118
	v23.6777c0,6.1369,4.975,11.1118,11.1118,11.1118h23.6777C259.7338,350.7692,264.7087,345.7943,264.7087,339.6574z"/>
<path d="M317.5023,321.8027v-5.7285c0-4.5272-4.9749-8.1973-11.1118-8.1973h-23.6777c-6.1369,0-11.1118,3.6701-11.1118,8.1973
	v5.7285c0,4.5272,4.9749,8.1973,11.1118,8.1973h23.6777C312.5274,330,317.5023,326.33,317.5023,321.8027z"/>
</svg>
